<?xml version="1.0" encoding="UTF-8"?>
<svg width="800px" height="800px" fill="#fff" version="1.1" viewBox="0 0 238 238" xmlns="http://www.w3.org/2000/svg">
<path d="m119 1e-3c-65.722 0-119 53.278-119 119s53.279 119 119 119 119-53.278 119-119-53.279-119-119-119zm12.246 218.79c-18.16 2.236-36.922-2.223-53.465-8.285-0.807-2.82-2.156-5.485-2.15-8.531 3e-3 -5.396 3.529-9.068 8.969-9.31 5.32-0.238 10.453 0.99 15.606 1.954 41.711 7.801 74.961 3.029 87.272-2.772-8.078 10.993-35.67 24.412-56.232 26.944zm77.801-55.651s-28.672 19.113-115.81-5.025c-14.681-4.067-29.28-8.338-43.684-13.271-5.891-2.016-20.17-8.192-27.146 1.401-7.988-24.075-2.113-43.425-2.113-43.425s1.188-1.632 1.511-2.011c7.329-8.594 16.984-10.806 27.711-10.188 15.479 0.888 29.159 7.085 42.342 14.552 20.646 11.682 40.563 24.916 62.474 34.05 49.171 20.499 58.646 9.143 60.918 7.533-2.749 10.403-6.202 16.384-6.202 16.384zm7.364-67.041c1.495 7.136 2.623 14.319 2.65 21.635-3.38 5.798-7.163 8.254-14.694 5.481-12.876-4.74-27.316-15.514-53.97-37.191-13.676-11.12-28.719-20.321-44.38-28.431-14.484-7.498-29.948-10.067-46.098-8.68-4.011 0.345-8.523 0.819-14.56 2.924 9.876-11.026 21.816-19.124 35.409-24.856 0.714-0.303 44.872-6.476 78.135 30.395 29.098 32.253 45.875 39.435 48.653 40.029 2.358 0.506 6.043 0.728 8.855-1.306z"/>
</svg>
