<?xml version="1.0" encoding="UTF-8" standalone="no"?>
<svg
   width="800"
   height="800"
   viewBox="0 0 100 100"
   xmlns="http://www.w3.org/2000/svg"
   xmlns:svg="http://www.w3.org/2000/svg">
  <path
     d="M 95.083864,12.767229 C 93.932638,6.4691094 87.49911,2.3005478 79.41799,3.9380234 71.343374,5.5756382 66.070308,11.632017 66.229527,18.435657 c 0.453435,4.28878 3.776826,7.461618 8.299354,8.626671 L 65.880656,52.825794 C 59.25358,55.014127 54.527466,60.700558 54.912926,66.36652 L 31.051113,77.703515 C 28.10999,75.316099 23.67298,74.240684 18.913169,75.175171 10.994444,76.732005 5.0441057,83.272606 5.7227937,89.674137 c 0.6535108,6.18114 7.2699753,10.056426 14.8530343,8.920429 a 3.2369606,4.1277133 70.532536 0 0 1.601469,-0.314869 c 7.509348,-1.828766 13.053355,-8.092858 12.399831,-14.273987 -0.0272,-0.249303 -0.07816,-0.4867 -0.12337,-0.728107 L 57.629061,72.267966 a 11.667287,14.877911 70.532539 0 0 12.151257,3.375233 3.2388327,4.1301005 70.53254 0 0 1.601466,-0.314867 C 78.891134,73.499567 84.435138,67.235477 83.781616,61.054342 83.28017,56.313816 79.274719,52.907668 74.018017,52.0869 l 8.488167,-24.98458 a 3.2313441,4.1205512 70.532536 0 0 0.179186,-0.0597 c 7.50801,-1.83017 13.510963,-8.19519 12.398494,-14.275393 z m -8.046183,1.580444 a 5.0847802,6.4840191 70.532538 0 1 -5.834707,6.410933 5.082908,6.4816317 70.532537 0 1 -6.927265,-3.903391 5.0847802,6.4840191 70.532538 0 1 5.833372,-6.412334 5.0847802,6.4840191 70.532538 0 1 6.9286,3.904792 z M 75.734097,62.633384 a 5.0847802,6.4840191 70.532538 0 1 -5.83471,6.410935 5.082908,6.4816317 70.532537 0 1 -6.927264,-3.903391 5.0847802,6.4840191 70.532538 0 1 5.833373,-6.412336 5.0847802,6.4840191 70.532538 0 1 6.928601,3.904792 z M 26.528275,85.58335 a 5.0847802,6.4840191 70.532538 0 1 -5.834708,6.410934 5.082908,6.4816317 70.532537 0 1 -6.925928,-3.901991 5.0847802,6.4840191 70.532538 0 1 5.83337,-6.412332 5.0847802,6.4840191 70.532538 0 1 6.927266,3.903389 z"
     fill="#ffffff"
     id="path15"
     style="fill:#ffffff;fill-opacity:1;stroke-width:1" />
</svg>
