<?xml version="1.0" encoding="UTF-8" standalone="yes"?>
<svg width="30mm" height="30mm" version="1.2" baseProfile="tiny-ps" viewBox="0 0 106.3 106.3" xmlns="http://www.w3.org/2000/svg">
 <title>Routechoices.com</title>
 <description>Routechoices Logo</description>
 <g transform="translate(-139.98 -443.48)">
  <g transform="matrix(1.5097 0 0 1.6048 -110.4 -308.52)">
   <rect x="165.85" y="468.59" width="70.409" height="66.238" fill="#ececec" stroke-width="2.8796"/>
   <g fill-rule="evenodd">
    <path d="m188.71 488.62a10.688 10.055 0 0 0-10.688 10.055 10.688 10.055 0 0 0 1.0159 4.2451l-10.876 7.2366v4.101l12.897-8.5785a10.688 10.055 0 0 0 7.6505 3.0504 10.688 10.055 0 0 0 10.688-10.055 10.688 10.055 0 0 0-10.688-10.055zm0 3.3516a7.1252 6.7031 0 0 1 7.1252 6.7031 7.1252 6.7031 0 0 1-7.1252 6.7031 7.1252 6.7031 0 0 1-4.6933-1.666l6.6868-4.448-2.0562-2.7362-6.6346 4.4153a7.1252 6.7031 0 0 1-0.42792-2.2682 7.1252 6.7031 0 0 1 7.1252-6.7031z" fill="#ff7f2a"/>
    <path d="m223.68 481.23a10.688 10.055 0 0 0-10.688 10.055 10.688 10.055 0 0 0 1.0159 4.2451l-41.067 27.32h6.1684l36.92-24.557a10.688 10.055 0 0 0 7.6505 3.0472 10.688 10.055 0 0 0 10.688-10.055 10.688 10.055 0 0 0-10.688-10.055zm0 3.3516a7.1252 6.7031 0 0 1 7.1252 6.7031 7.1252 6.7031 0 0 1-7.1252 6.7031 7.1252 6.7031 0 0 1-4.6898-1.666l6.6868-4.448-2.0596-2.7362-6.6346 4.412a7.1252 6.7031 0 0 1-0.42793-2.2649 7.1252 6.7031 0 0 1 7.1252-6.7031z" fill="#0cf"/>
    <path d="m216.04 501.13a10.688 10.055 0 0 0-10.688 10.055 10.688 10.055 0 0 0 1.0159 4.2451l-11.154 7.4199h6.1684l7.0069-4.6607a10.688 10.055 0 0 0 7.6505 3.0504 10.688 10.055 0 0 0 10.688-10.055 10.688 10.055 0 0 0-10.688-10.055zm0 3.3516a7.1252 6.7031 0 0 1 7.1252 6.7031 7.1252 6.7031 0 0 1-7.1252 6.7031 7.1252 6.7031 0 0 1-4.6933-1.666l6.6868-4.448-2.0562-2.7362-6.6346 4.4153a7.1252 6.7031 0 0 1-0.42793-2.2682 7.1252 6.7031 0 0 1 7.1252-6.7031z" fill="#00d400"/>
   </g>
  </g>
 </g>
</svg>
