<?xml version="1.0" encoding="UTF-8" standalone="no"?>
<!-- Created with Inkscape (http://www.inkscape.org/) -->

<svg
   xmlns:dc="http://purl.org/dc/elements/1.1/"
   xmlns:cc="http://creativecommons.org/ns#"
   xmlns:rdf="http://www.w3.org/1999/02/22-rdf-syntax-ns#"
   xmlns:svg="http://www.w3.org/2000/svg"
   xmlns="http://www.w3.org/2000/svg"
   xmlns:sodipodi="http://sodipodi.sourceforge.net/DTD/sodipodi-0.dtd"
   xmlns:inkscape="http://www.inkscape.org/namespaces/inkscape"
   width="12.489076mm"
   height="9.0092535mm"
   viewBox="0 0 44.25263 31.922551"
   id="svg2"
   version="1.1"
   inkscape:version="0.91 r13725"
   sodipodi:docname="logo.svg"
   inkscape:export-filename="/home/rphl/Projects/django-seuranta/seuranta/static/seuranta/img/logo.png"
   inkscape:export-xdpi="242.15666"
   inkscape:export-ydpi="242.15666">
  <defs
     id="defs4" />
  <sodipodi:namedview
     id="base"
     pagecolor="#ffffff"
     bordercolor="#666666"
     borderopacity="1.0"
     inkscape:pageopacity="0.0"
     inkscape:pageshadow="2"
     inkscape:zoom="11.2"
     inkscape:cx="5.3820675"
     inkscape:cy="-2.9203666"
     inkscape:document-units="px"
     inkscape:current-layer="g4211"
     showgrid="false"
     fit-margin-top="1"
     fit-margin-left="1"
     fit-margin-right="1"
     fit-margin-bottom="1"
     inkscape:window-width="1920"
     inkscape:window-height="1031"
     inkscape:window-x="0"
     inkscape:window-y="0"
     inkscape:window-maximized="1"
     showguides="false" />
  <metadata
     id="metadata7">
    <rdf:RDF>
      <cc:Work
         rdf:about="">
        <dc:format>image/svg+xml</dc:format>
        <dc:type
           rdf:resource="http://purl.org/dc/dcmitype/StillImage" />
        <dc:title></dc:title>
      </cc:Work>
    </rdf:RDF>
  </metadata>
  <g
     inkscape:label="Layer 1"
     inkscape:groupmode="layer"
     id="layer1"
     transform="translate(-149.1426,-468.69501)">
    <g
       id="g4211"
       transform="matrix(1.5097373,0,0,1.6047991,-110.4032,-308.52091)">
      <path
         style="fill:#ff8539;fill-opacity:1;fill-rule:evenodd;stroke:none;stroke-width:0.64244944px;stroke-linecap:butt;stroke-linejoin:miter;stroke-opacity:1"
         d="m 22.517578,35.625 a 6.0000002,6.0000001 0 0 0 -6,6 6.0000002,6.0000001 0 0 0 0.570313,2.533203 l -6.105469,4.318359 0,2.447266 7.240234,-5.11914 a 6.0000002,6.0000001 0 0 0 4.294922,1.820312 6.0000002,6.0000001 0 0 0 6,-6 6.0000002,6.0000001 0 0 0 -6,-6 z m 0,2 a 3.9999999,4.0000001 0 0 1 4,4 3.9999999,4.0000001 0 0 1 -4,4 3.9999999,4.0000001 0 0 1 -2.634766,-0.994141 l 3.753907,-2.654297 -1.154297,-1.632812 -3.72461,2.634766 A 3.9999999,4.0000001 0 0 1 18.517578,41.625 a 3.9999999,4.0000001 0 0 1 4,-4 z"
         transform="matrix(0.66236689,0,0,0.62313096,166.98712,467.06309)"
         id="path4258"
         inkscape:connector-curvature="0" />
      <path
         style="fill:#00bdff;fill-opacity:1;fill-rule:evenodd;stroke:none;stroke-width:0.64244944px;stroke-linecap:butt;stroke-linejoin:miter;stroke-opacity:1"
         d="m 42.148438,31.216797 a 6.0000002,6.0000001 0 0 0 -6,6 A 6.0000002,6.0000001 0 0 0 36.71875,39.75 l -23.054688,16.302734 3.462891,0 20.726563,-14.654296 a 6.0000002,6.0000001 0 0 0 4.294922,1.818359 6.0000002,6.0000001 0 0 0 6,-6 6.0000002,6.0000001 0 0 0 -6,-6 z m 0,2 a 3.9999999,4.0000001 0 0 1 4,4 3.9999999,4.0000001 0 0 1 -4,4 3.9999999,4.0000001 0 0 1 -2.632813,-0.994141 l 3.753906,-2.654297 -1.15625,-1.632812 -3.724609,2.632812 a 3.9999999,4.0000001 0 0 1 -0.240234,-1.351562 3.9999999,4.0000001 0 0 1 4,-4 z"
         transform="matrix(0.66236689,0,0,0.62313096,166.98712,467.06309)"
         id="path4258-0"
         inkscape:connector-curvature="0" />
      <path
         style="fill:#70eb5a;fill-opacity:1;fill-rule:evenodd;stroke:none;stroke-width:0.64244944px;stroke-linecap:butt;stroke-linejoin:miter;stroke-opacity:1"
         d="m 37.863281,43.091797 a 6.0000002,6.0000001 0 0 0 -6,6 6.0000002,6.0000001 0 0 0 0.570313,2.533203 l -6.261719,4.427734 3.462891,0 3.933593,-2.78125 a 6.0000002,6.0000001 0 0 0 4.294922,1.820313 6.0000002,6.0000001 0 0 0 6,-6 6.0000002,6.0000001 0 0 0 -6,-6 z m 0,2 a 3.9999999,4.0000001 0 0 1 4,4 3.9999999,4.0000001 0 0 1 -4,4 3.9999999,4.0000001 0 0 1 -2.634765,-0.994141 l 3.753906,-2.654297 -1.154297,-1.632812 -3.724609,2.634765 a 3.9999999,4.0000001 0 0 1 -0.240235,-1.353515 3.9999999,4.0000001 0 0 1 4,-4 z"
         transform="matrix(0.66236689,0,0,0.62313096,166.98712,467.06309)"
         id="path4258-1"
         inkscape:connector-curvature="0" />
    </g>
  </g>
</svg>
