<?xml version="1.0" encoding="UTF-8" standalone="no"?>
<svg
   width="30mm"
   height="30mm"
   viewBox="0 0 106.29921 106.29921"
   id="svg2"
   version="1.1"
   sodipodi:docname="logo-square.svg"
   inkscape:version="1.1.1 (c3084ef, 2021-09-22)"
   inkscape:export-filename="/Users/rphlo/bitmap.png"
   inkscape:export-xdpi="1932.2728"
   inkscape:export-ydpi="1932.2728"
   xmlns:inkscape="http://www.inkscape.org/namespaces/inkscape"
   xmlns:sodipodi="http://sodipodi.sourceforge.net/DTD/sodipodi-0.dtd"
   xmlns="http://www.w3.org/2000/svg"
   xmlns:svg="http://www.w3.org/2000/svg">
  <defs
     id="defs1107" />
  <sodipodi:namedview
     id="namedview1105"
     pagecolor="#ffffff"
     bordercolor="#666666"
     borderopacity="1.0"
     inkscape:pageshadow="2"
     inkscape:pageopacity="0.0"
     inkscape:pagecheckerboard="0"
     inkscape:document-units="mm"
     showgrid="false"
     fit-margin-top="1"
     fit-margin-left="1"
     fit-margin-right="1"
     fit-margin-bottom="1"
     lock-margins="true"
     inkscape:zoom="2.6394448"
     inkscape:cx="89.602178"
     inkscape:cy="52.094289"
     inkscape:window-width="2560"
     inkscape:window-height="1315"
     inkscape:window-x="0"
     inkscape:window-y="25"
     inkscape:window-maximized="0"
     inkscape:current-layer="g1100" />
  <g
     transform="translate(-139.98347,-443.47663)"
     id="g1102">
    <g
       transform="matrix(1.5097373,0,0,1.6047991,-110.4032,-308.52091)"
       id="g1100">
      <rect
         style="fill:#ececec;stroke-width:2.87964;fill-opacity:1"
         id="rect1166"
         width="70.409081"
         height="66.238327"
         x="165.84784"
         y="468.59296" />
      <path
         style="fill:#ff7f2a;fill-opacity:1;fill-rule:evenodd;stroke:none;stroke-width:0.825482px;stroke-linecap:butt;stroke-linejoin:miter;stroke-opacity:1"
         d="m 188.47296,480.43219 a 10.687754,10.054655 0 0 0 -10.68775,10.05467 10.687754,10.054655 0 0 0 1.01589,4.24506 l -10.87562,7.23662 v 4.10105 l 12.89698,-8.57852 a 10.687754,10.054655 0 0 0 7.6505,3.05042 10.687754,10.054655 0 0 0 10.68777,-10.05463 10.687754,10.054655 0 0 0 -10.68777,-10.05467 z m 0,3.35155 a 7.125169,6.7031031 0 0 1 7.12518,6.70312 7.125169,6.7031031 0 0 1 -7.12518,6.70309 7.125169,6.7031031 0 0 1 -4.69328,-1.66596 l 6.68681,-4.44799 -2.05615,-2.73624 -6.63462,4.41526 a 7.125169,6.7031031 0 0 1 -0.42792,-2.26816 7.125169,6.7031031 0 0 1 7.12516,-6.70312 z"
         id="path1094" />
      <path
         style="fill:#00ccff;fill-opacity:1;fill-rule:evenodd;stroke:none;stroke-width:0.825482px;stroke-linecap:butt;stroke-linejoin:miter;stroke-opacity:1"
         d="m 223.44127,473.04502 a 10.687754,10.054655 0 0 0 -10.68776,10.05467 10.687754,10.054655 0 0 0 1.0159,4.24509 l -41.06714,27.3197 h 6.16842 l 36.92007,-24.5573 a 10.687754,10.054655 0 0 0 7.65051,3.04715 10.687754,10.054655 0 0 0 10.68775,-10.05464 10.687754,10.054655 0 0 0 -10.68775,-10.05467 z m 0,3.35155 a 7.125169,6.7031031 0 0 1 7.12516,6.70312 7.125169,6.7031031 0 0 1 -7.12516,6.70309 7.125169,6.7031031 0 0 1 -4.68981,-1.66595 l 6.68681,-4.448 -2.05963,-2.73624 -6.63461,4.41201 a 7.125169,6.7031031 0 0 1 -0.42793,-2.26491 7.125169,6.7031031 0 0 1 7.12517,-6.70312 z"
         id="path1096" />
      <path
         style="fill:#00d400;fill-opacity:1;fill-rule:evenodd;stroke:none;stroke-width:0.825482px;stroke-linecap:butt;stroke-linejoin:miter;stroke-opacity:1"
         d="m 215.80814,492.94486 a 10.687754,10.054655 0 0 0 -10.68775,10.05467 10.687754,10.054655 0 0 0 1.01589,4.24508 l -11.15395,7.41987 h 6.16843 l 7.00688,-4.66074 a 10.687754,10.054655 0 0 0 7.6505,3.05043 10.687754,10.054655 0 0 0 10.68777,-10.05464 10.687754,10.054655 0 0 0 -10.68777,-10.05467 z m 0,3.35155 a 7.125169,6.7031031 0 0 1 7.12518,6.70312 7.125169,6.7031031 0 0 1 -7.12518,6.70309 7.125169,6.7031031 0 0 1 -4.69328,-1.66596 l 6.68681,-4.44799 -2.05615,-2.73624 -6.63461,4.41529 a 7.125169,6.7031031 0 0 1 -0.42793,-2.26819 7.125169,6.7031031 0 0 1 7.12516,-6.70312 z"
         id="path1098" />
      <g
         aria-label="Routechoices.com"
         transform="matrix(1.2185522,0,0,1.1463702,-31.59439,-76.732311)"
         id="text2889"
         style="font-size:6.42449px;line-height:1.25;stroke-width:0.509596">
        <path
           d="m 165.22744,518.84778 q 0.41759,0 0.77094,0.0578 0.35977,0.0578 0.61675,0.20559 0.26341,0.14776 0.41117,0.41117 0.14776,0.25698 0.14776,0.65529 0,0.17989 -0.0514,0.3662 -0.045,0.18631 -0.16062,0.35335 -0.11564,0.16061 -0.3148,0.29552 -0.19915,0.13492 -0.50753,0.21844 l 1.24635,1.72818 h -1.17568 l -1.16283,-1.61897 h -0.45614 v 1.61897 h -1.01507 v -4.29156 h 1.65109 z m -0.63602,1.82456 h 0.66814 q 0.17989,0 0.33408,-0.0193 0.15419,-0.0193 0.2634,-0.0707 0.11564,-0.0578 0.17989,-0.14777 0.0642,-0.0964 0.0642,-0.24413 0,-0.14776 -0.0642,-0.24413 -0.0643,-0.0964 -0.17989,-0.14776 -0.10921,-0.0578 -0.2634,-0.0771 -0.15419,-0.0193 -0.33408,-0.0193 h -0.66814 v 0.9701 z"
           style="font-family:'Atkinson Hyperlegible';-inkscape-font-specification:'Atkinson Hyperlegible';stroke-width:0.509596"
           id="path14684" />
        <path
           d="m 167.65138,521.53322 q 0,-0.43044 0.13492,-0.74524 0.14134,-0.3148 0.37262,-0.52038 0.2377,-0.20559 0.53965,-0.30195 0.30838,-0.1028 0.64245,-0.1028 0.32765,0 0.6296,0.1028 0.30838,0.0964 0.53966,0.30195 0.23128,0.20558 0.37262,0.52038 0.14134,0.3148 0.14134,0.74524 0,0.43044 -0.14134,0.75167 -0.14134,0.3148 -0.37262,0.52038 -0.23128,0.20558 -0.53966,0.30838 -0.30195,0.10279 -0.6296,0.10279 -0.33407,0 -0.64245,-0.10279 -0.30195,-0.1028 -0.53965,-0.30838 -0.23128,-0.20558 -0.37262,-0.52038 -0.13492,-0.32123 -0.13492,-0.75167 z m 1.68964,0.92513 q 0.29553,0 0.48826,-0.21201 0.19916,-0.21201 0.19916,-0.71312 0,-0.25055 -0.0578,-0.42402 -0.0514,-0.17988 -0.14776,-0.28267 -0.0899,-0.10922 -0.21843,-0.15419 -0.12207,-0.0514 -0.26341,-0.0514 -0.14134,0 -0.26983,0.0514 -0.12849,0.045 -0.22485,0.15419 -0.0899,0.10279 -0.14777,0.28267 -0.0514,0.17347 -0.0514,0.42402 0,0.50111 0.19273,0.71312 0.19916,0.21201 0.50111,0.21201 z"
           style="font-family:'Atkinson Hyperlegible';-inkscape-font-specification:'Atkinson Hyperlegible';stroke-width:0.509596"
           id="path14686" />
        <path
           d="m 171.49493,519.9528 h 0.97653 v 1.67036 q 0,0.17346 0.006,0.32765 0.0129,0.14777 0.0578,0.26341 0.0514,0.10921 0.14776,0.17988 0.0964,0.0643 0.27626,0.0643 0.30837,0 0.43686,-0.19274 0.12849,-0.19273 0.12849,-0.63602 v -1.67679 h 0.98295 v 3.18654 h -0.84803 l -0.13492,-0.44971 q -0.14134,0.23771 -0.35334,0.38547 -0.20559,0.14134 -0.57178,0.14134 -0.3148,0 -0.53324,-0.09 -0.21201,-0.0899 -0.34049,-0.25698 -0.12207,-0.17346 -0.17989,-0.42401 -0.0514,-0.25056 -0.0514,-0.57821 v -1.91449 z"
           style="font-family:'Atkinson Hyperlegible';-inkscape-font-specification:'Atkinson Hyperlegible';stroke-width:0.509596"
           id="path14688" />
        <path
           d="m 174.92119,519.9528 h 0.52681 v -0.79664 h 0.97653 v 0.79664 h 0.69384 v 0.74524 h -0.69384 v 1.2849 q 0,0.22485 0.0835,0.29552 0.09,0.0643 0.32765,0.0643 h 0.28268 v 0.79663 h -0.61675 q -0.29553,0 -0.49469,-0.0321 -0.19916,-0.0385 -0.32765,-0.13491 -0.12206,-0.0964 -0.17988,-0.26983 -0.0514,-0.17989 -0.0514,-0.46257 v -1.54187 h -0.52681 v -0.74524 z"
           style="font-family:'Atkinson Hyperlegible';-inkscape-font-specification:'Atkinson Hyperlegible';stroke-width:0.509596"
           id="path14690" />
        <path
           d="m 177.42614,521.5268 q 0,-0.37905 0.13492,-0.68742 0.13491,-0.30838 0.36619,-0.52681 0.23771,-0.21843 0.54609,-0.33408 0.3148,-0.11564 0.66172,-0.11564 0.39189,0 0.70669,0.14777 0.3148,0.14134 0.52681,0.39832 0.21201,0.25055 0.3148,0.6039 0.10922,0.35334 0.0835,0.77736 h -2.35779 q 0.0129,0.16704 0.0771,0.29553 0.0707,0.12206 0.16704,0.20558 0.10279,0.0835 0.23128,0.12849 0.12849,0.0385 0.26341,0.0385 0.22485,0 0.38547,-0.0643 0.16703,-0.0642 0.25698,-0.17346 l 0.77736,0.28268 q -0.25056,0.36619 -0.6296,0.53966 -0.37262,0.17346 -0.76452,0.17346 -0.38546,0 -0.70669,-0.11564 -0.32122,-0.11564 -0.55251,-0.33408 -0.23128,-0.21843 -0.35977,-0.53323 -0.12849,-0.3148 -0.12849,-0.70669 z m 0.98295,-0.3148 h 1.45193 q -0.0128,-0.30838 -0.212,-0.46257 -0.19916,-0.16061 -0.48826,-0.16061 -0.27626,0 -0.49469,0.14776 -0.21201,0.14777 -0.25698,0.47542 z"
           style="font-family:'Atkinson Hyperlegible';-inkscape-font-specification:'Atkinson Hyperlegible';stroke-width:0.509596"
           id="path14692" />
        <path
           d="m 182.69684,519.86285 q 0.20558,0 0.41116,0.045 0.21201,0.0385 0.39832,0.13492 0.19274,0.0964 0.35335,0.25698 0.16704,0.16061 0.27625,0.39832 l -0.81591,0.29552 q -0.0771,-0.20558 -0.23128,-0.2891 -0.14776,-0.0835 -0.33407,-0.0835 -0.13492,0 -0.26341,0.0514 -0.12206,0.045 -0.21843,0.15419 -0.0964,0.10279 -0.15419,0.28267 -0.0578,0.17347 -0.0578,0.42402 0,0.25698 0.0578,0.43687 0.0643,0.17988 0.16061,0.2891 0.0964,0.10279 0.21844,0.15419 0.12849,0.045 0.25698,0.045 0.20558,0 0.34692,-0.0771 0.14134,-0.0835 0.22486,-0.22485 l 0.79663,0.2891 q -0.12206,0.21843 -0.2891,0.36619 -0.16704,0.14777 -0.35977,0.23771 -0.18631,0.0899 -0.38547,0.12849 -0.19916,0.0385 -0.39189,0.0385 -0.3919,0 -0.70027,-0.12207 -0.30195,-0.12206 -0.51396,-0.3405 -0.20559,-0.22485 -0.3148,-0.53323 -0.10279,-0.3148 -0.10279,-0.69384 0,-0.37905 0.11564,-0.681 0.12206,-0.30838 0.33407,-0.52681 0.21843,-0.21843 0.51396,-0.33407 0.30195,-0.12207 0.66815,-0.12207 z"
           style="font-family:'Atkinson Hyperlegible';-inkscape-font-specification:'Atkinson Hyperlegible';stroke-width:0.509596"
           id="path14694" />
        <path
           d="m 184.56977,518.84778 h 0.97653 v 1.52903 q 0.0514,-0.0899 0.14134,-0.17988 0.0964,-0.0899 0.21843,-0.16062 0.12849,-0.0771 0.28268,-0.12206 0.16061,-0.0514 0.34049,-0.0514 0.30838,0 0.51396,0.09 0.20559,0.0835 0.32765,0.25698 0.12849,0.16703 0.17989,0.41759 0.0514,0.25055 0.0514,0.57178 v 1.94019 h -0.97652 v -1.69606 q 0,-0.16704 -0.0128,-0.3148 -0.006,-0.15419 -0.0578,-0.26341 -0.045,-0.11564 -0.14776,-0.17988 -0.0964,-0.0643 -0.26983,-0.0643 -0.30838,0 -0.44971,0.22486 -0.14134,0.21843 -0.14134,0.6553 v 1.63824 h -0.97653 v -4.29156 z"
           style="font-family:'Atkinson Hyperlegible';-inkscape-font-specification:'Atkinson Hyperlegible';stroke-width:0.509596"
           id="path14696" />
        <path
           d="m 188.02906,521.53322 q 0,-0.43044 0.13492,-0.74524 0.14133,-0.3148 0.37262,-0.52038 0.2377,-0.20559 0.53965,-0.30195 0.30838,-0.1028 0.64245,-0.1028 0.32765,0 0.6296,0.1028 0.30838,0.0964 0.53966,0.30195 0.23128,0.20558 0.37262,0.52038 0.14134,0.3148 0.14134,0.74524 0,0.43044 -0.14134,0.75167 -0.14134,0.3148 -0.37262,0.52038 -0.23128,0.20558 -0.53966,0.30838 -0.30195,0.10279 -0.6296,0.10279 -0.33407,0 -0.64245,-0.10279 -0.30195,-0.1028 -0.53965,-0.30838 -0.23129,-0.20558 -0.37262,-0.52038 -0.13492,-0.32123 -0.13492,-0.75167 z m 1.68964,0.92513 q 0.29553,0 0.48826,-0.21201 0.19916,-0.21201 0.19916,-0.71312 0,-0.25055 -0.0578,-0.42402 -0.0514,-0.17988 -0.14776,-0.28267 -0.0899,-0.10922 -0.21843,-0.15419 -0.12207,-0.0514 -0.26341,-0.0514 -0.14134,0 -0.26983,0.0514 -0.12849,0.045 -0.22485,0.15419 -0.0899,0.10279 -0.14777,0.28267 -0.0514,0.17347 -0.0514,0.42402 0,0.50111 0.19273,0.71312 0.19916,0.21201 0.50111,0.21201 z"
           style="font-family:'Atkinson Hyperlegible';-inkscape-font-specification:'Atkinson Hyperlegible';stroke-width:0.509596"
           id="path14698" />
        <path
           d="m 192.22596,518.84778 q 0,-0.24413 0.16704,-0.41116 0.16703,-0.16704 0.41116,-0.16704 0.24413,0 0.41117,0.16704 0.16704,0.16703 0.16704,0.41116 0,0.23771 -0.16704,0.41117 -0.16704,0.16704 -0.41117,0.16704 -0.24413,0 -0.41116,-0.16704 -0.16704,-0.17346 -0.16704,-0.41117 z m -0.52038,1.10502 h 1.58684 v 3.18654 h -0.98294 v -2.4413 h -0.6039 z"
           style="font-family:'Atkinson Hyperlegible';-inkscape-font-specification:'Atkinson Hyperlegible';stroke-width:0.509596"
           id="path14700" />
        <path
           d="m 195.3576,519.86285 q 0.20558,0 0.41116,0.045 0.21201,0.0385 0.39832,0.13492 0.19274,0.0964 0.35335,0.25698 0.16704,0.16061 0.27625,0.39832 l -0.81591,0.29552 q -0.0771,-0.20558 -0.23128,-0.2891 -0.14776,-0.0835 -0.33407,-0.0835 -0.13492,0 -0.26341,0.0514 -0.12206,0.045 -0.21843,0.15419 -0.0964,0.10279 -0.15419,0.28267 -0.0578,0.17347 -0.0578,0.42402 0,0.25698 0.0578,0.43687 0.0642,0.17988 0.16061,0.2891 0.0964,0.10279 0.21844,0.15419 0.12849,0.045 0.25698,0.045 0.20558,0 0.34692,-0.0771 0.14134,-0.0835 0.22486,-0.22485 l 0.79663,0.2891 q -0.12206,0.21843 -0.2891,0.36619 -0.16704,0.14777 -0.35977,0.23771 -0.18631,0.0899 -0.38547,0.12849 -0.19916,0.0385 -0.39189,0.0385 -0.3919,0 -0.70027,-0.12207 -0.30195,-0.12206 -0.51396,-0.3405 -0.20559,-0.22485 -0.3148,-0.53323 -0.10279,-0.3148 -0.10279,-0.69384 0,-0.37905 0.11564,-0.681 0.12206,-0.30838 0.33407,-0.52681 0.21843,-0.21843 0.51396,-0.33407 0.30195,-0.12207 0.66815,-0.12207 z"
           style="font-family:'Atkinson Hyperlegible';-inkscape-font-specification:'Atkinson Hyperlegible';stroke-width:0.509596"
           id="path14702" />
        <path
           d="m 197.0635,521.5268 q 0,-0.37905 0.13492,-0.68742 0.13491,-0.30838 0.36619,-0.52681 0.23771,-0.21843 0.54608,-0.33408 0.3148,-0.11564 0.66173,-0.11564 0.39189,0 0.70669,0.14777 0.3148,0.14134 0.52681,0.39832 0.21201,0.25055 0.3148,0.6039 0.10921,0.35334 0.0835,0.77736 h -2.35779 q 0.0129,0.16704 0.0771,0.29553 0.0707,0.12206 0.16704,0.20558 0.10279,0.0835 0.23128,0.12849 0.12849,0.0385 0.2634,0.0385 0.22486,0 0.38547,-0.0643 0.16704,-0.0642 0.25698,-0.17346 l 0.77737,0.28268 q -0.25056,0.36619 -0.6296,0.53966 -0.37262,0.17346 -0.76452,0.17346 -0.38547,0 -0.70669,-0.11564 -0.32123,-0.11564 -0.55251,-0.33408 -0.23128,-0.21843 -0.35977,-0.53323 -0.12849,-0.3148 -0.12849,-0.70669 z m 0.98295,-0.3148 h 1.45193 q -0.0128,-0.30838 -0.21201,-0.46257 -0.19915,-0.16061 -0.48826,-0.16061 -0.27625,0 -0.49468,0.14776 -0.21201,0.14777 -0.25698,0.47542 z"
           style="font-family:'Atkinson Hyperlegible';-inkscape-font-specification:'Atkinson Hyperlegible';stroke-width:0.509596"
           id="path14704" />
        <path
           d="m 201.51186,522.105 q 0.0707,0.20558 0.26983,0.30195 0.20558,0.0964 0.48183,0.0964 0.23771,0 0.41759,-0.0707 0.18631,-0.0771 0.18631,-0.22486 0,-0.10279 -0.10921,-0.16703 -0.10922,-0.0707 -0.38547,-0.12207 l -0.57178,-0.0964 q -0.46256,-0.0771 -0.75167,-0.30837 -0.2891,-0.23771 -0.2891,-0.64245 0,-0.25056 0.11564,-0.43687 0.12207,-0.19273 0.32123,-0.3148 0.19916,-0.12849 0.46256,-0.19273 0.26983,-0.0643 0.56536,-0.0643 0.23128,0 0.44329,0.0385 0.21843,0.0385 0.40474,0.12849 0.18631,0.0835 0.32765,0.21843 0.14776,0.13492 0.2377,0.32123 l -0.82233,0.30195 q -0.0514,-0.17346 -0.21843,-0.23128 -0.16062,-0.0643 -0.37905,-0.0643 -0.52681,0 -0.52681,0.25698 0,0.0964 0.0899,0.16061 0.0899,0.0578 0.30195,0.0964 l 0.59105,0.10922 q 0.5782,0.10279 0.85446,0.30195 0.27625,0.19916 0.27625,0.59748 0,0.28267 -0.12849,0.49468 -0.12207,0.20559 -0.33407,0.34692 -0.21201,0.14134 -0.49469,0.20559 -0.28268,0.0707 -0.6039,0.0707 -0.56536,0 -0.9701,-0.19916 -0.40474,-0.20559 -0.59105,-0.61033 l 0.82876,-0.30195 z"
           style="font-family:'Atkinson Hyperlegible';-inkscape-font-specification:'Atkinson Hyperlegible';stroke-width:0.509596"
           id="path14706" />
        <path
           d="m 204.23715,522.58684 q 0,-0.26341 0.17988,-0.44329 0.18631,-0.17989 0.44972,-0.17989 0.12849,0 0.2377,0.0514 0.11564,0.045 0.19916,0.12849 0.09,0.0835 0.13492,0.19916 0.0514,0.11564 0.0514,0.24413 0,0.12849 -0.0514,0.24413 -0.045,0.11564 -0.13492,0.20558 -0.0835,0.0835 -0.19916,0.12849 -0.10921,0.0514 -0.2377,0.0514 -0.26341,0 -0.44972,-0.17989 -0.17988,-0.18631 -0.17988,-0.44971 z"
           style="font-family:'Atkinson Hyperlegible';-inkscape-font-specification:'Atkinson Hyperlegible';stroke-width:0.509596"
           id="path14708" />
        <path
           d="m 207.54154,519.86285 q 0.20559,0 0.41117,0.045 0.21201,0.0385 0.39832,0.13492 0.19273,0.0964 0.35335,0.25698 0.16703,0.16061 0.27625,0.39832 l -0.81591,0.29552 q -0.0771,-0.20558 -0.23128,-0.2891 -0.14777,-0.0835 -0.33408,-0.0835 -0.13491,0 -0.2634,0.0514 -0.12207,0.045 -0.21843,0.15419 -0.0964,0.10279 -0.15419,0.28267 -0.0578,0.17347 -0.0578,0.42402 0,0.25698 0.0578,0.43687 0.0642,0.17988 0.16061,0.2891 0.0964,0.10279 0.21843,0.15419 0.12849,0.045 0.25698,0.045 0.20559,0 0.34693,-0.0771 0.14133,-0.0835 0.22485,-0.22485 l 0.79664,0.2891 q -0.12207,0.21843 -0.2891,0.36619 -0.16704,0.14777 -0.35977,0.23771 -0.18631,0.0899 -0.38547,0.12849 -0.19916,0.0385 -0.3919,0.0385 -0.39189,0 -0.70027,-0.12207 -0.30195,-0.12206 -0.51396,-0.3405 -0.20558,-0.22485 -0.3148,-0.53323 -0.10279,-0.3148 -0.10279,-0.69384 0,-0.37905 0.11564,-0.681 0.12207,-0.30838 0.33408,-0.52681 0.21843,-0.21843 0.51396,-0.33407 0.30195,-0.12207 0.66814,-0.12207 z"
           style="font-family:'Atkinson Hyperlegible';-inkscape-font-specification:'Atkinson Hyperlegible';stroke-width:0.509596"
           id="path14710" />
        <path
           d="m 209.24745,521.53322 q 0,-0.43044 0.13491,-0.74524 0.14134,-0.3148 0.37262,-0.52038 0.23771,-0.20559 0.53966,-0.30195 0.30837,-0.1028 0.64245,-0.1028 0.32765,0 0.6296,0.1028 0.30837,0.0964 0.53965,0.30195 0.23129,0.20558 0.37262,0.52038 0.14134,0.3148 0.14134,0.74524 0,0.43044 -0.14134,0.75167 -0.14133,0.3148 -0.37262,0.52038 -0.23128,0.20558 -0.53965,0.30838 -0.30195,0.10279 -0.6296,0.10279 -0.33408,0 -0.64245,-0.10279 -0.30195,-0.1028 -0.53966,-0.30838 -0.23128,-0.20558 -0.37262,-0.52038 -0.13491,-0.32123 -0.13491,-0.75167 z m 1.68964,0.92513 q 0.29552,0 0.48826,-0.21201 0.19916,-0.21201 0.19916,-0.71312 0,-0.25055 -0.0578,-0.42402 -0.0514,-0.17988 -0.14777,-0.28267 -0.0899,-0.10922 -0.21843,-0.15419 -0.12206,-0.0514 -0.2634,-0.0514 -0.14134,0 -0.26983,0.0514 -0.12849,0.045 -0.22486,0.15419 -0.0899,0.10279 -0.14776,0.28267 -0.0514,0.17347 -0.0514,0.42402 0,0.50111 0.19274,0.71312 0.19916,0.21201 0.50111,0.21201 z"
           style="font-family:'Atkinson Hyperlegible';-inkscape-font-specification:'Atkinson Hyperlegible';stroke-width:0.509596"
           id="path14712" />
        <path
           d="m 213.091,523.13934 v -3.18654 h 0.85445 l 0.12207,0.42401 q 0.0514,-0.0899 0.14134,-0.17988 0.0899,-0.0899 0.21201,-0.16062 0.12849,-0.0771 0.27625,-0.12206 0.15419,-0.0514 0.33407,-0.0514 0.38547,0 0.61033,0.13492 0.22486,0.13491 0.33407,0.39832 0.18631,-0.26983 0.46899,-0.39832 0.28268,-0.13492 0.62318,-0.13492 0.30837,0 0.51395,0.09 0.20559,0.0835 0.32765,0.25698 0.12849,0.16703 0.17989,0.41759 0.0514,0.25055 0.0514,0.57178 v 1.94019 h -0.97653 v -1.69606 q 0,-0.16704 -0.0128,-0.3148 -0.0129,-0.15419 -0.0642,-0.26341 -0.045,-0.11564 -0.14776,-0.17988 -0.0964,-0.0643 -0.26983,-0.0643 -0.30195,0 -0.43687,0.20559 -0.12849,0.20558 -0.12849,0.6296 v 1.68321 h -0.98295 v -1.69606 q 0,-0.16704 -0.0128,-0.3148 -0.006,-0.15419 -0.0578,-0.26341 -0.045,-0.11564 -0.14134,-0.17988 -0.09,-0.0643 -0.26341,-0.0643 -0.30837,0 -0.44329,0.21844 -0.13491,0.21843 -0.13491,0.63602 v 1.66394 H 213.091 Z"
           style="font-family:'Atkinson Hyperlegible';-inkscape-font-specification:'Atkinson Hyperlegible';stroke-width:0.509596"
           id="path14714" />
      </g>
      <g
         aria-label="GPS Tracking Solution"
         transform="matrix(1.2100285,0,0,1.1544455,-31.59439,-76.732311)"
         id="text8135"
         style="font-size:5.30021px;line-height:1.25;font-family:'Atkinson Hyperlegible';-inkscape-font-specification:'Atkinson Hyperlegible';stroke-width:0.421867"
         inkscape:transform-center-x="6.7294971"
         inkscape:transform-center-y="-0.87497329">
        <path
           d="m 166.08778,521.55778 q 0.46642,0 0.83744,0.18551 0.37631,0.18021 0.58832,0.54592 l -0.72083,0.29681 q -0.0901,-0.1378 -0.26501,-0.23851 -0.17491,-0.1007 -0.45052,-0.1007 -0.1908,0 -0.35511,0.0742 -0.16431,0.0689 -0.28621,0.21201 -0.12191,0.14311 -0.19611,0.35512 -0.0689,0.212 -0.0689,0.49292 0,0.56182 0.25441,0.85863 0.25441,0.29681 0.66782,0.29681 0.14311,0 0.28621,-0.0265 0.14311,-0.0318 0.25441,-0.1007 0.11131,-0.0742 0.18021,-0.18551 0.0689,-0.11661 0.0689,-0.28621 v -0.10071 h -0.79503 v -0.67842 h 1.63247 v 2.00348 h -0.55122 l -0.11661,-0.39222 q -0.16961,0.23321 -0.43992,0.34451 -0.26501,0.11131 -0.64662,0.11131 -0.38692,0 -0.69963,-0.12721 -0.31271,-0.1325 -0.53002,-0.37101 -0.21731,-0.23851 -0.33391,-0.57772 -0.11661,-0.34452 -0.11661,-0.76853 0,-0.41872 0.12721,-0.75263 0.1325,-0.33922 0.37101,-0.57773 0.23851,-0.23851 0.56712,-0.36571 0.33392,-0.12721 0.73673,-0.12721 z"
           id="path14717"
           style="stroke-width:0.421867" />
        <path
           d="m 168.14294,521.62139 h 1.36215 q 0.34452,0 0.63603,0.053 0.29681,0.0477 0.50882,0.18021 0.21731,0.1272 0.33921,0.34981 0.12191,0.22261 0.12191,0.57242 0,0.34982 -0.12191,0.57242 -0.1219,0.22261 -0.33921,0.35512 -0.21201,0.1272 -0.50882,0.18021 -0.29151,0.0477 -0.63603,0.0477 h -0.52472 v 1.22965 h -0.83743 z m 1.38865,1.61656 q 0.14311,0 0.27032,-0.0159 0.1272,-0.0212 0.2226,-0.0742 0.0954,-0.053 0.14841,-0.13781 0.053,-0.0901 0.053,-0.23321 0,-0.1378 -0.053,-0.22261 -0.053,-0.0901 -0.14841,-0.1378 -0.0954,-0.053 -0.2226,-0.0689 -0.12721,-0.0212 -0.27032,-0.0212 h -0.55122 v 0.91164 h 0.55122 z"
           id="path14719"
           style="stroke-width:0.421867" />
        <path
           d="m 172.16986,524.05418 q 0.0742,0.25441 0.27561,0.37632 0.20141,0.1219 0.49822,0.1219 0.1113,0 0.22261,-0.0159 0.1166,-0.0212 0.2067,-0.0636 0.0901,-0.0477 0.14311,-0.11661 0.0583,-0.0742 0.0583,-0.1749 0,-0.18551 -0.1802,-0.28621 -0.18021,-0.10071 -0.46642,-0.15901 l -0.42932,-0.0848 q -0.21731,-0.0424 -0.41342,-0.11661 -0.1961,-0.0795 -0.34451,-0.19611 -0.14311,-0.1219 -0.23321,-0.28621 -0.0848,-0.1696 -0.0848,-0.39751 0,-0.28621 0.1325,-0.49292 0.13781,-0.20671 0.34982,-0.33922 0.2173,-0.1378 0.48232,-0.2014 0.27031,-0.0636 0.53532,-0.0636 0.21731,0 0.42401,0.0424 0.20671,0.0424 0.38692,0.1378 0.18021,0.0901 0.31801,0.23851 0.14311,0.14311 0.22791,0.34981 l -0.75793,0.27561 q -0.0742,-0.1802 -0.24911,-0.27561 -0.16961,-0.0954 -0.42402,-0.0954 -0.24381,0 -0.40811,0.0901 -0.15901,0.0848 -0.15901,0.24911 0,0.13781 0.10601,0.23321 0.1113,0.0901 0.29681,0.12721 l 0.47702,0.0954 q 0.2173,0.0424 0.43991,0.10601 0.22791,0.0636 0.40812,0.1802 0.18551,0.11131 0.30211,0.29151 0.12191,0.17491 0.12191,0.45052 0,0.28091 -0.13251,0.50352 -0.1272,0.21731 -0.33921,0.36572 -0.21201,0.1484 -0.48232,0.22791 -0.26501,0.0742 -0.54062,0.0742 -0.58303,0 -0.97524,-0.23321 -0.39222,-0.23321 -0.55652,-0.66253 z"
           id="path14721"
           style="stroke-width:0.421867" />
        <path
           d="m 176.33292,521.62139 h 3.11123 v 0.73673 h -1.13955 v 2.80381 h -0.83213 v -2.80381 h -1.13955 z"
           id="path14723"
           style="stroke-width:0.421867" />
        <path
           d="m 180.12547,522.53302 0.14311,0.48232 q 0.1219,-0.31801 0.33391,-0.44522 0.21201,-0.1272 0.51412,-0.1113 v 0.80563 q -0.0636,-0.0106 -0.1113,-0.0106 -0.0477,-0.005 -0.10601,-0.005 -0.29681,0 -0.45051,0.13781 -0.15371,0.1325 -0.15371,0.45051 v 1.32506 h -0.80563 v -2.62891 h 0.63602 z"
           id="path14725"
           style="stroke-width:0.421867" />
        <path
           d="m 181.21955,524.4517 q 0,-0.23851 0.12721,-0.40282 0.1325,-0.1696 0.36041,-0.27561 0.23321,-0.106 0.55122,-0.16431 0.32331,-0.0636 0.70493,-0.0901 v -0.1007 q 0,-0.22791 -0.1166,-0.31802 -0.11131,-0.0954 -0.32332,-0.0954 -0.1696,0 -0.29151,0.0795 -0.1219,0.0742 -0.16431,0.23321 l -0.67842,-0.24381 q 0.1325,-0.26501 0.43992,-0.43991 0.30741,-0.17491 0.76323,-0.17491 0.28091,0 0.49822,0.0583 0.2173,0.0583 0.36571,0.19081 0.14841,0.1325 0.22261,0.34451 0.0795,0.20671 0.0795,0.50352 v 0.57773 q 0,0.1272 0.005,0.27561 0.0106,0.1431 0.0212,0.28091 0.0106,0.1378 0.0265,0.26501 0.0159,0.1219 0.0371,0.20671 h -0.74733 l -0.0954,-0.31802 q -0.1484,0.20671 -0.37101,0.29682 -0.22261,0.0848 -0.50882,0.0848 -0.18551,0 -0.34982,-0.053 -0.1643,-0.053 -0.29151,-0.15371 -0.1219,-0.1007 -0.19611,-0.24381 -0.0689,-0.1431 -0.0689,-0.32331 z m 1.20315,0.22261 q 0.1219,0 0.22261,-0.0265 0.1007,-0.0318 0.1749,-0.10071 0.0742,-0.0689 0.11661,-0.18551 0.0424,-0.1219 0.0424,-0.30211 v -0.0636 q -0.20671,0.0159 -0.38161,0.0424 -0.16961,0.0265 -0.29152,0.0742 -0.1219,0.0424 -0.1908,0.11131 -0.0636,0.0636 -0.0636,0.16961 0,0.1272 0.10601,0.2067 0.106,0.0742 0.26501,0.0742 z"
           id="path14727"
           style="stroke-width:0.421867" />
        <path
           d="m 185.50121,522.45882 q 0.16961,0 0.33921,0.0371 0.17491,0.0318 0.32862,0.11131 0.159,0.0795 0.29151,0.212 0.1378,0.13251 0.22791,0.32862 l -0.67313,0.24381 q -0.0636,-0.16961 -0.19081,-0.23851 -0.1219,-0.0689 -0.27561,-0.0689 -0.1113,0 -0.21731,0.0424 -0.1007,0.0371 -0.1802,0.1272 -0.0795,0.0848 -0.12721,0.23321 -0.0477,0.14311 -0.0477,0.34981 0,0.21201 0.0477,0.36042 0.053,0.1484 0.13251,0.23851 0.0795,0.0848 0.1802,0.1272 0.10601,0.0371 0.21201,0.0371 0.16961,0 0.28621,-0.0636 0.11661,-0.0689 0.18551,-0.18551 l 0.65723,0.23851 q -0.10071,0.18021 -0.23851,0.30212 -0.13781,0.1219 -0.29681,0.1961 -0.15371,0.0742 -0.31802,0.10601 -0.1643,0.0318 -0.32331,0.0318 -0.32331,0 -0.57772,-0.10071 -0.24911,-0.1007 -0.42402,-0.28091 -0.16961,-0.1855 -0.25971,-0.43991 -0.0848,-0.25971 -0.0848,-0.57243 0,-0.31271 0.0954,-0.56182 0.1007,-0.25441 0.27561,-0.43462 0.18021,-0.1802 0.42402,-0.27561 0.24911,-0.1007 0.55122,-0.1007 z"
           id="path14729"
           style="stroke-width:0.421867" />
        <path
           d="m 187.04639,525.16193 v -3.54054 h 0.80563 v 1.90807 l 0.87983,-0.99644 h 0.95404 l -1.02824,1.09715 1.10774,1.53176 h -0.95403 l -0.68373,-0.95404 -0.27561,0.29151 v 0.66253 z"
           id="path14731"
           style="stroke-width:0.421867" />
        <path
           d="m 190.27786,521.62139 q 0,-0.20141 0.1378,-0.33922 0.13781,-0.1378 0.33922,-0.1378 0.20141,0 0.33921,0.1378 0.13781,0.13781 0.13781,0.33922 0,0.1961 -0.13781,0.33921 -0.1378,0.1378 -0.33921,0.1378 -0.20141,0 -0.33922,-0.1378 -0.1378,-0.14311 -0.1378,-0.33921 z m -0.42932,0.91163 h 1.30915 v 2.62891 h -0.81093 v -2.01408 h -0.49822 z"
           id="path14733"
           style="stroke-width:0.421867" />
        <path
           d="m 191.65301,525.16193 v -2.62891 h 0.70493 l 0.10071,0.34982 q 0.0424,-0.0742 0.1166,-0.14841 0.0795,-0.0742 0.18021,-0.13251 0.106,-0.0636 0.23321,-0.1007 0.1325,-0.0424 0.28091,-0.0424 0.25441,0 0.42402,0.0742 0.1696,0.0689 0.27031,0.21201 0.106,0.13781 0.1484,0.34451 0.0424,0.20671 0.0424,0.47172 v 1.60067 h -0.80563 v -1.39926 q 0,-0.1378 -0.0106,-0.25971 -0.005,-0.1272 -0.0477,-0.21731 -0.0371,-0.0954 -0.12191,-0.1484 -0.0795,-0.053 -0.2226,-0.053 -0.25441,0 -0.37102,0.18551 -0.1166,0.18021 -0.1166,0.54062 v 1.35156 h -0.80564 z"
           id="path14735"
           style="stroke-width:0.421867" />
        <path
           d="m 196.51472,522.89344 0.106,-0.36042 h 0.69433 v 2.4328 q 0,0.33391 -0.0954,0.57242 -0.0901,0.23851 -0.26501,0.39222 -0.1749,0.159 -0.42401,0.23321 -0.24911,0.0742 -0.55653,0.0742 -0.1643,0 -0.33391,-0.0318 -0.16431,-0.0265 -0.32331,-0.10071 -0.15371,-0.0689 -0.28621,-0.1908 -0.13251,-0.12191 -0.22261,-0.30212 l 0.65722,-0.23851 q 0.0742,0.14311 0.21201,0.19611 0.13781,0.053 0.27561,0.053 0.24381,0 0.40282,-0.1166 0.15901,-0.1113 0.15901,-0.38162 v -0.47171 q -0.16961,0.212 -0.39222,0.31271 -0.21731,0.1007 -0.43992,0.1007 -0.21201,0 -0.41871,-0.0848 -0.20141,-0.0901 -0.36042,-0.25441 -0.159,-0.16431 -0.25971,-0.39752 -0.0954,-0.23851 -0.0954,-0.54062 0,-0.34451 0.0954,-0.59362 0.0954,-0.25441 0.24911,-0.41872 0.15901,-0.1643 0.35512,-0.24381 0.2014,-0.0795 0.40811,-0.0795 0.25441,0 0.47702,0.1113 0.22791,0.11131 0.38162,0.32862 z m -0.54593,1.54766 q 0.11661,0 0.22261,-0.0318 0.10601,-0.0318 0.18551,-0.11131 0.0795,-0.0795 0.12191,-0.20671 0.0477,-0.1325 0.0477,-0.32331 0,-0.19081 -0.0477,-0.32331 -0.0424,-0.13251 -0.12191,-0.21201 -0.0795,-0.0795 -0.18551,-0.1113 -0.106,-0.0371 -0.22261,-0.0371 -0.23851,0 -0.41341,0.15901 -0.16961,0.15901 -0.16961,0.50352 0,0.34981 0.16961,0.52472 0.1749,0.16961 0.41341,0.16961 z"
           id="path14737"
           style="stroke-width:0.421867" />
        <path
           d="m 200.1823,524.05418 q 0.0742,0.25441 0.27561,0.37632 0.2014,0.1219 0.49822,0.1219 0.1113,0 0.22261,-0.0159 0.1166,-0.0212 0.2067,-0.0636 0.0901,-0.0477 0.14311,-0.11661 0.0583,-0.0742 0.0583,-0.1749 0,-0.18551 -0.18021,-0.28621 -0.1802,-0.10071 -0.46641,-0.15901 l -0.42932,-0.0848 q -0.21731,-0.0424 -0.41342,-0.11661 -0.19611,-0.0795 -0.34451,-0.19611 -0.14311,-0.1219 -0.23321,-0.28621 -0.0848,-0.1696 -0.0848,-0.39751 0,-0.28621 0.1325,-0.49292 0.13781,-0.20671 0.34982,-0.33922 0.2173,-0.1378 0.48231,-0.2014 0.27031,-0.0636 0.53533,-0.0636 0.2173,0 0.42401,0.0424 0.20671,0.0424 0.38692,0.1378 0.1802,0.0901 0.31801,0.23851 0.14311,0.14311 0.22791,0.34981 l -0.75793,0.27561 q -0.0742,-0.1802 -0.24911,-0.27561 -0.16961,-0.0954 -0.42402,-0.0954 -0.24381,0 -0.40811,0.0901 -0.15901,0.0848 -0.15901,0.24911 0,0.13781 0.106,0.23321 0.11131,0.0901 0.29682,0.12721 l 0.47701,0.0954 q 0.21731,0.0424 0.43992,0.10601 0.22791,0.0636 0.40812,0.1802 0.18551,0.11131 0.30211,0.29151 0.12191,0.17491 0.12191,0.45052 0,0.28091 -0.13251,0.50352 -0.12721,0.21731 -0.33921,0.36572 -0.21201,0.1484 -0.48232,0.22791 -0.26501,0.0742 -0.54062,0.0742 -0.58303,0 -0.97524,-0.23321 -0.39222,-0.23321 -0.55652,-0.66253 z"
           id="path14739"
           style="stroke-width:0.421867" />
        <path
           d="m 202.69534,523.83687 q 0,-0.35511 0.1113,-0.61482 0.11661,-0.25971 0.30742,-0.42932 0.1961,-0.1696 0.44521,-0.24911 0.25441,-0.0848 0.53002,-0.0848 0.27032,0 0.51943,0.0848 0.25441,0.0795 0.44521,0.24911 0.19081,0.16961 0.30741,0.42932 0.11661,0.25971 0.11661,0.61482 0,0.35512 -0.11661,0.62013 -0.1166,0.25971 -0.30741,0.42932 -0.1908,0.1696 -0.44521,0.25441 -0.24911,0.0848 -0.51943,0.0848 -0.27561,0 -0.53002,-0.0848 -0.24911,-0.0848 -0.44521,-0.25441 -0.19081,-0.16961 -0.30742,-0.42932 -0.1113,-0.26501 -0.1113,-0.62013 z m 1.39395,0.76323 q 0.24381,0 0.40282,-0.1749 0.16431,-0.17491 0.16431,-0.58833 0,-0.2067 -0.0477,-0.34981 -0.0424,-0.14841 -0.12191,-0.23321 -0.0742,-0.0901 -0.18021,-0.1272 -0.1007,-0.0424 -0.21731,-0.0424 -0.1166,0 -0.2226,0.0424 -0.10601,0.0371 -0.18551,0.1272 -0.0742,0.0848 -0.12191,0.23321 -0.0424,0.14311 -0.0424,0.34981 0,0.41342 0.15901,0.58833 0.1643,0.1749 0.41341,0.1749 z"
           id="path14741"
           style="stroke-width:0.421867" />
        <path
           d="m 206.67191,521.62139 v 2.5865 q 0,0.18551 0.0742,0.24381 0.0742,0.053 0.27561,0.053 h 0.22791 v 0.65723 h -0.51412 q -0.24381,0 -0.40812,-0.0265 -0.1643,-0.0318 -0.27031,-0.11131 -0.1007,-0.0795 -0.1484,-0.22261 -0.0424,-0.1484 -0.0424,-0.38161 v -2.79851 z"
           id="path14743"
           style="stroke-width:0.421867" />
        <path
           d="m 207.53294,522.53302 h 0.80563 v 1.37806 q 0,0.1431 0.005,0.27031 0.0106,0.1219 0.0477,0.21731 0.0424,0.0901 0.12191,0.1484 0.0795,0.053 0.22791,0.053 0.25441,0 0.36041,-0.159 0.10601,-0.15901 0.10601,-0.52472 v -1.38336 h 0.81093 v 2.62891 h -0.69963 l -0.1113,-0.37102 q -0.11661,0.19611 -0.29152,0.31801 -0.1696,0.11661 -0.47171,0.11661 -0.25971,0 -0.43992,-0.0742 -0.17491,-0.0742 -0.28091,-0.21201 -0.10071,-0.14311 -0.14841,-0.34982 -0.0424,-0.2067 -0.0424,-0.47702 v -1.57946 z"
           id="path14745"
           style="stroke-width:0.421867" />
        <path
           d="m 210.35961,522.53302 h 0.43462 v -0.65722 h 0.80563 v 0.65722 h 0.57242 v 0.61483 h -0.57242 v 1.06004 q 0,0.18551 0.0689,0.24381 0.0742,0.053 0.27031,0.053 h 0.23321 v 0.65723 h -0.50882 q -0.24381,0 -0.40812,-0.0265 -0.1643,-0.0318 -0.27031,-0.11131 -0.1007,-0.0795 -0.1484,-0.22261 -0.0424,-0.1484 -0.0424,-0.38161 v -1.27205 h -0.43462 z"
           id="path14747"
           style="stroke-width:0.421867" />
        <path
           d="m 212.85551,521.62139 q 0,-0.20141 0.13781,-0.33922 0.1378,-0.1378 0.33921,-0.1378 0.20141,0 0.33921,0.1378 0.13781,0.13781 0.13781,0.33922 0,0.1961 -0.13781,0.33921 -0.1378,0.1378 -0.33921,0.1378 -0.20141,0 -0.33921,-0.1378 -0.13781,-0.14311 -0.13781,-0.33921 z m -0.42932,0.91163 h 1.30916 v 2.62891 h -0.81094 v -2.01408 h -0.49822 z"
           id="path14749"
           style="stroke-width:0.421867" />
        <path
           d="m 214.09286,523.83687 q 0,-0.35511 0.11131,-0.61482 0.1166,-0.25971 0.30741,-0.42932 0.19611,-0.1696 0.44522,-0.24911 0.25441,-0.0848 0.53002,-0.0848 0.27031,0 0.51942,0.0848 0.25441,0.0795 0.44521,0.24911 0.19081,0.16961 0.30742,0.42932 0.1166,0.25971 0.1166,0.61482 0,0.35512 -0.1166,0.62013 -0.11661,0.25971 -0.30742,0.42932 -0.1908,0.1696 -0.44521,0.25441 -0.24911,0.0848 -0.51942,0.0848 -0.27561,0 -0.53002,-0.0848 -0.24911,-0.0848 -0.44522,-0.25441 -0.19081,-0.16961 -0.30741,-0.42932 -0.11131,-0.26501 -0.11131,-0.62013 z m 1.39396,0.76323 q 0.24381,0 0.40281,-0.1749 0.16431,-0.17491 0.16431,-0.58833 0,-0.2067 -0.0477,-0.34981 -0.0424,-0.14841 -0.12191,-0.23321 -0.0742,-0.0901 -0.1802,-0.1272 -0.10071,-0.0424 -0.21731,-0.0424 -0.11661,0 -0.22261,0.0424 -0.10601,0.0371 -0.18551,0.1272 -0.0742,0.0848 -0.1219,0.23321 -0.0424,0.14311 -0.0424,0.34981 0,0.41342 0.15901,0.58833 0.16431,0.1749 0.41342,0.1749 z"
           id="path14751"
           style="stroke-width:0.421867" />
        <path
           d="m 217.2638,525.16193 v -2.62891 h 0.70493 l 0.1007,0.34982 q 0.0424,-0.0742 0.1166,-0.14841 0.0795,-0.0742 0.18021,-0.13251 0.10601,-0.0636 0.23321,-0.1007 0.13251,-0.0424 0.28091,-0.0424 0.25441,0 0.42402,0.0742 0.1696,0.0689 0.27031,0.21201 0.106,0.13781 0.1484,0.34451 0.0424,0.20671 0.0424,0.47172 v 1.60067 h -0.80564 v -1.39926 q 0,-0.1378 -0.0106,-0.25971 -0.005,-0.1272 -0.0477,-0.21731 -0.0371,-0.0954 -0.1219,-0.1484 -0.0795,-0.053 -0.22261,-0.053 -0.25441,0 -0.37102,0.18551 -0.1166,0.18021 -0.1166,0.54062 v 1.35156 h -0.80563 z"
           id="path14753"
           style="stroke-width:0.421867" />
      </g>
    </g>
  </g>
</svg>
