<?xml version="1.0" standalone="no"?>
<!DOCTYPE svg PUBLIC "-//W3C//DTD SVG 20010904//EN"
 "http://www.w3.org/TR/2001/REC-SVG-20010904/DTD/svg10.dtd">
<svg version="1.0" xmlns="http://www.w3.org/2000/svg"
 width="752.000000pt" height="752.000000pt" viewBox="0 0 752.000000 752.000000"
 preserveAspectRatio="xMidYMid meet">
<metadata>
Created by potrace 1.14, written by Peter Selinger 2001-2017
</metadata>
<g transform="translate(0.000000,752.000000) scale(0.100000,-0.100000)"
fill="#000000" stroke="none">
<path d="M5740 5855 c-82 -14 -154 -31 -185 -45 -102 -44 -164 -74 -201 -100
-25 -16 -47 -30 -49 -30 -15 0 -171 -152 -210 -205 -17 -22 -35 -45 -41 -52
-18 -19 -91 -163 -113 -223 -65 -180 -80 -386 -40 -559 16 -70 50 -175 60
-185 16 -17 10 -45 -13 -57 -12 -6 -27 -16 -32 -21 -6 -5 -47 -34 -91 -65 -44
-31 -102 -72 -130 -92 -27 -19 -79 -55 -114 -79 -35 -24 -73 -52 -84 -63 -12
-10 -25 -19 -30 -19 -4 0 -15 -6 -22 -12 -32 -29 -78 -62 -144 -103 -9 -5 -18
-13 -21 -16 -3 -3 -72 -53 -155 -111 -82 -58 -216 -152 -297 -209 -81 -57
-186 -131 -233 -164 -48 -33 -94 -66 -103 -73 -9 -7 -62 -44 -117 -82 -55 -39
-104 -73 -110 -78 -5 -4 -57 -41 -115 -82 -58 -41 -106 -77 -108 -82 -2 -4 -8
-8 -13 -8 -6 0 -15 -5 -22 -10 -16 -13 -105 -77 -246 -175 -62 -44 -123 -87
-134 -95 -12 -8 -125 -88 -252 -177 -126 -89 -234 -166 -240 -170 -12 -11
-285 -203 -369 -260 -33 -23 -66 -46 -71 -51 -6 -5 -24 -17 -40 -28 -17 -10
-35 -23 -41 -29 -6 -5 -51 -37 -99 -70 -48 -33 -103 -72 -123 -87 -49 -37 -55
-41 -74 -53 -22 -14 -208 -144 -236 -166 -22 -17 -10 -17 267 -18 l290 -1 53
35 c52 35 123 83 169 118 141 103 392 277 399 277 6 0 10 4 10 8 0 4 30 28 68
52 37 24 69 47 72 50 3 4 37 28 75 55 90 62 197 137 210 148 18 15 256 182
273 192 9 6 43 29 74 53 31 23 60 42 64 42 4 0 14 7 23 15 24 24 282 205 291
205 5 0 10 4 12 8 2 4 32 28 68 52 36 25 67 47 70 50 3 3 34 25 70 50 36 24
70 48 75 52 6 5 141 100 300 213 160 112 295 207 300 212 6 4 46 33 90 63 44
30 85 58 90 63 6 4 42 30 80 57 39 27 79 56 90 64 19 14 197 139 238 168 11 7
44 31 75 54 32 22 86 61 122 86 l65 47 40 -36 c158 -139 330 -223 530 -260 59
-11 274 -9 338 3 267 50 516 207 654 412 21 31 40 59 43 62 20 18 105 219 115
273 3 10 6 26 9 35 20 67 28 287 14 362 -5 25 -11 59 -14 75 -5 30 -20 86 -31
115 -3 8 -7 20 -8 26 -7 30 -89 182 -128 237 -145 201 -400 368 -617 403 -14
2 -36 7 -50 10 -47 12 -245 11 -320 -1z m294 -339 c136 -31 261 -100 354 -196
72 -74 149 -209 166 -293 3 -12 8 -33 11 -47 11 -43 13 -200 3 -244 -5 -22
-11 -50 -14 -60 -32 -157 -172 -336 -332 -422 -136 -73 -314 -100 -462 -69
-99 20 -286 115 -297 151 -2 6 15 24 39 39 23 15 47 32 52 37 6 4 97 69 201
143 105 73 223 157 262 185 l73 51 -31 42 c-17 23 -53 74 -80 112 -27 39 -53
75 -59 82 -5 7 -10 17 -10 23 0 13 -27 13 -43 0 -25 -22 -583 -412 -595 -417
-17 -7 -20 -3 -26 30 -2 14 -7 30 -10 35 -15 24 -22 187 -11 243 3 13 8 40 11
59 22 136 145 318 277 409 47 32 139 78 174 86 10 3 43 11 73 19 55 13 217 15
274 2z"/>
<path d="M2370 5100 c-218 -46 -386 -135 -529 -281 -51 -52 -101 -109 -101
-115 0 -5 -41 -65 -50 -74 -8 -7 -75 -148 -89 -185 -50 -136 -70 -363 -44
-505 16 -84 52 -210 65 -225 24 -27 6 -52 -89 -120 -54 -39 -102 -72 -108 -74
-5 -2 -12 -7 -15 -10 -5 -7 -63 -48 -205 -147 -38 -26 -74 -52 -80 -56 -9 -7
-147 -105 -198 -140 -11 -7 -41 -29 -67 -48 -26 -19 -58 -42 -70 -50 -12 -8
-59 -41 -104 -73 l-81 -58 -1 -205 c0 -112 3 -204 7 -204 4 0 14 6 21 12 8 7
21 18 30 23 37 24 74 51 92 67 11 10 25 18 32 18 7 0 14 4 16 8 2 5 46 38 98
75 52 36 100 70 105 74 20 17 146 103 150 103 3 0 16 9 29 21 13 11 58 44 99
72 41 29 149 104 239 168 184 131 248 176 286 201 26 17 27 17 62 -16 74 -69
232 -176 262 -176 5 0 22 -6 36 -14 108 -56 262 -85 426 -81 90 3 173 12 188
22 5 2 21 6 36 9 15 2 47 11 72 20 54 19 62 21 74 22 5 0 12 4 15 9 3 4 35 23
71 42 169 89 288 208 415 416 33 55 89 219 100 295 3 19 8 46 11 59 6 30 6
206 -1 246 -3 17 -8 46 -11 65 -3 19 -5 35 -4 35 1 0 -3 12 -9 28 -6 15 -13
38 -15 50 -12 62 -114 266 -138 275 -4 2 -8 10 -8 17 0 22 -178 197 -248 244
-100 67 -242 132 -322 147 -14 3 -34 8 -45 11 -70 23 -303 24 -405 3z m339
-334 c102 -24 228 -90 308 -161 59 -53 132 -152 165 -225 65 -141 76 -311 32
-469 -17 -60 -68 -166 -90 -188 -8 -8 -14 -18 -14 -22 0 -5 -29 -38 -65 -74
-58 -59 -182 -145 -217 -151 -7 -1 -19 -5 -25 -9 -14 -9 -31 -13 -121 -32 -73
-15 -206 -12 -277 5 -90 23 -194 73 -244 118 -14 12 -29 22 -33 22 -22 0 0 21
78 75 149 104 219 154 229 163 6 4 39 28 75 52 36 24 83 58 106 75 23 16 51
37 64 45 13 8 34 24 47 35 l24 20 -50 70 c-28 39 -67 94 -88 123 -21 30 -42
60 -48 68 -8 10 -28 0 -100 -51 -49 -35 -95 -68 -101 -72 -5 -4 -17 -12 -26
-18 -28 -18 -229 -160 -241 -170 -37 -33 -168 -117 -174 -112 -18 19 -39 149
-37 232 4 209 101 402 260 521 21 16 41 31 44 34 15 17 146 72 210 89 58 15
99 19 180 16 58 -2 116 -6 129 -9z"/>
<path d="M5157 3854 c-1 -1 -36 -4 -77 -7 -184 -13 -391 -94 -540 -212 -36
-28 -151 -146 -175 -178 -11 -15 -28 -37 -37 -48 -10 -12 -18 -26 -18 -30 0
-4 -6 -14 -13 -21 -35 -37 -120 -259 -128 -333 -2 -16 -6 -34 -10 -40 -8 -12
-4 -281 5 -315 3 -14 9 -38 11 -55 7 -37 52 -175 64 -194 10 -16 4 -21 -84
-83 -27 -19 -140 -98 -250 -176 -110 -78 -208 -147 -218 -154 -38 -26 -122
-88 -134 -98 -7 -5 -15 -10 -18 -10 -4 0 -26 -16 -49 -35 -24 -19 -48 -35 -54
-35 -6 0 -12 -4 -14 -8 -1 -4 -54 -43 -115 -86 -62 -44 -113 -80 -113 -82 0
-2 130 -3 290 -4 l290 0 67 47 c38 26 73 51 78 55 6 5 40 30 77 56 183 129
328 231 385 270 l62 44 61 -54 c73 -64 211 -150 288 -178 31 -11 64 -23 72
-27 19 -8 19 -8 119 -28 131 -27 339 -22 431 10 22 8 40 12 40 10 0 -13 192
73 265 118 42 26 169 128 185 148 3 4 24 29 48 56 23 28 53 66 67 84 37 53
121 226 130 272 2 10 7 27 10 37 35 112 41 358 11 485 -63 263 -208 472 -435
629 -100 68 -258 132 -376 151 -47 8 -195 22 -198 19z m93 -348 c74 -8 111
-15 123 -23 7 -4 17 -8 22 -9 6 -1 35 -13 67 -28 70 -32 138 -83 201 -148 46
-48 117 -149 117 -166 0 -5 9 -28 21 -51 11 -24 22 -53 25 -65 20 -103 23
-138 20 -214 -12 -252 -152 -465 -379 -575 -50 -25 -105 -48 -122 -50 -16 -3
-50 -10 -75 -14 -123 -25 -292 5 -421 74 -64 34 -119 74 -119 86 0 3 44 36 98
74 53 37 103 73 110 80 8 7 22 18 33 23 19 11 325 227 367 260 22 16 22 19 8
36 -8 11 -42 57 -75 104 -33 47 -64 90 -69 96 -5 5 -15 20 -21 32 -12 22 -13
22 -42 5 -17 -10 -39 -26 -49 -35 -11 -10 -22 -18 -24 -18 -5 0 -158 -108
-183 -130 -7 -5 -16 -10 -22 -10 -5 0 -11 -3 -13 -8 -3 -7 -35 -30 -188 -137
-136 -95 -135 -95 -145 -44 -3 13 -8 35 -11 49 -3 14 -8 65 -10 113 -12 296
175 566 459 662 70 23 200 44 237 38 8 -1 35 -4 60 -7z"/>
</g>
</svg>
