<svg version="1" xmlns="http://www.w3.org/2000/svg" width="938.667" height="938.667" viewBox="0 0 704.000000 704.000000"><path d="M546.8 154.5c-.2.2-2.5.5-5.3.8-5.6.6-6.5.8-15 3.2-3.3 1-6.6 2.2-7.2 2.7-.7.6-1.3.8-1.3.5 0-.5-4.3 1.6-12.4 6.2-5.1 2.9-11.9 8.1-18.1 13.9-5.5 5.2-15.5 17.4-15.5 19 0 .6-.4 1.2-.9 1.4-2.7 1-11.4 23.7-13.6 35.3-.6 3.3-.6 20.4.1 25 .8 6.2 3.4 16 6 22.8l1.9 4.9-2.5 1.9c-3.5 2.6-3.9 2.9-9.5 6.9-2.8 1.9-5.1 3.8-5.3 4.2-.2.4-.8.8-1.2.8-.8 0-26.9 18.1-32.5 22.4-1.6 1.3-39.8 28.3-60 42.4-2.7 2-7.3 5.3-10.2 7.4-2.9 2.1-5.5 3.8-5.7 3.8-.6 0-3.7 2.4-6.1 4.7-.8.7-1.8 1.3-2.2 1.3-.5 0-1.8.8-2.9 1.7-1.1 1-3.3 2.7-4.9 3.9-19.8 13.9-114.2 80.6-118 83.4-2.7 2-8.4 6-12.5 8.9-4.1 2.9-13.8 9.7-21.5 15.2-7.7 5.4-14.7 10.3-15.5 10.9-3.1 2.1-15.5 10.9-16.5 11.7-1 .9-18.8 13.3-23.5 16.5-1.4.9-5.5 3.9-9.1 6.5l-6.7 4.9h27.7c15.2 0 28.1-.4 28.6-.9.6-.4 13.4-9.5 28.5-20.2s29.6-20.9 32.1-22.7c2.6-1.8 5.6-4 6.9-4.8 1.2-.8 5.7-4.1 10.1-7.2 4.3-3.2 8.1-5.8 8.4-5.8.3 0 1.3-.8 2.4-1.7 1-1 4.8-3.8 8.5-6.3 3.6-2.5 15.8-11 27-19 11.3-8 26.6-18.8 34.1-24 7.5-5.2 14.2-10 14.8-10.5 3.8-3.2 8.7-6.5 9.6-6.5.6 0 1.1-.4 1.1-.8s1.5-1.6 3.3-2.7c1.7-1 3.4-2.1 3.7-2.5.3-.3 4.3-3.2 9-6.5 4.7-3.2 8.7-6.2 8.8-6.6.2-.5.8-.9 1.3-.9.6 0 1.5-.5 2.2-1 3.1-2.7 54.9-39 55.7-39 .5 0 1-.4 1.2-.8.2-.7 16.1-12.1 36.6-26.4 1.8-1.3 3.9-2.9 4.7-3.6.7-.6 1.8-1.2 2.3-1.2.6 0 1.2-.3 1.4-.8.2-.4 3.4-2.9 7.2-5.6 4.6-3.3 7.3-4.6 8.1-4 .7.5 3.7 2.8 6.6 5.2 8.8 7 9.3 7.4 17.5 11.8 7.9 4.2 21.9 8.6 32.4 10 3.9.6 18.1.6 22.8 0 14.5-1.8 34.2-10.7 46.7-21.2 7.7-6.4 17.5-16.5 17.5-17.9 0-.4 1.3-2.3 2.9-4.3 6.4-8.1 13.3-24.7 15.5-37.9 1.3-7.1 1.3-20.7.2-27.3-6.1-34-32.9-65.1-66-76.5-7.8-2.6-8.9-2.9-15.1-4.1-3.2-.6-18.2-1.3-18.7-.9zm18.6 33.5c10.8 2.4 25.5 11.3 33.3 19.9 2.7 3 11.3 15.7 11.3 16.7 0 .3.6 2 1.4 3.7 1.3 2.9 2 5.2 3.4 11.2.7 2.9.7 15.4 0 20-1.8 12.1-8.6 24.4-19.5 35.2-4.6 4.6-8.8 8.3-9.3 8.3-.6 0-2.7 1-4.8 2.3-4.2 2.6-11.4 5.7-15.2 6.4-10.4 2-15.7 2.2-24 .8-1.9-.3-4.5-.8-5.7-.9-5.5-1-25.2-11.6-25.3-13.7 0-.6 4.6-4 35.1-25.4 12.3-8.7 22.7-16.1 23.1-16.4.4-.4-1.5-3.8-4.2-7.6-2.7-3.9-6.6-9.6-8.7-12.7-2.1-3.1-4.2-5.7-4.8-5.7-.5 0-9.8 6.2-20.5 13.9s-20.2 14.4-21 14.9c-6.6 4.6-13.6 9.6-14 10.1-.3.4-1.3.9-2.2 1.3-1.8.6-2.2-.2-3.3-5.9-.2-1-.4-1.9-.5-1.9-1.1 0-1.5-15.4-.6-22.2 1.6-11.7 10.7-27.7 21-37 16.2-14.4 35.6-19.8 55-15.3z"/><path d="M234.7 224.6c-.1.1-2.4.4-5.2.8-6.5.8-8.1 1.1-14.6 3-5 1.5-20.8 8.4-21.9 9.6-.3.3-3 2.2-6 4.3-16.4 11.1-31.3 30.7-37.5 49.4-2.4 7.1-2.9 9.2-4.4 18.3-1.9 12 .9 32.7 6 44.8 1.1 2.4 1.9 4.7 1.9 5.1 0 .5-1.9 2.1-4.2 3.7-2.4 1.6-4.5 3.1-4.8 3.4-.3.3-8.8 6.4-19 13.5s-19 13.4-19.7 14c-.6.5-3.5 2.6-6.3 4.5s-7.3 5.1-10 7c-12.3 8.7-19 13.4-25.5 18.1l-7 4.9v19c-.1 10.5.1 19 .4 19 1 0 9.1-5.1 9.1-5.8 0-.4 2.3-2.1 5-3.7 2.7-1.7 5-3.3 5-3.8 0-.4.4-.7 1-.7.8 0 10.4-6.5 14.5-9.8 1.1-.9 26.2-18.7 29.8-21.2 1.3-.8 6.7-4.7 12.1-8.5 5.4-3.9 11.7-8.3 14-9.9 2.2-1.6 8.5-6 13.8-9.7 5.3-3.8 9.9-6.9 10.3-6.9.3 0 2.4 1.7 4.6 3.7 3.5 3.3 10 8 16.5 12 7.8 4.9 24.1 10.5 34.4 11.8 14.2 1.9 25.6.9 39.8-3.4 5.3-1.6 17.5-7.4 19.6-9.3 1.1-1 2.4-1.8 2.8-1.8 1.6 0 10.1-6.9 17.1-13.8 14.5-14.2 24.7-33.8 28.2-54.2.8-4.2.8-20.5 0-24-.2-1.4-.7-3.9-1.1-5.5-.9-4.7-4.6-15.8-6-18-.6-1.1-1.5-3.1-1.9-4.4-.9-3.1-10.9-17.6-15.6-22.7-18.1-19.8-42.7-31.8-66.7-32.7-4.5-.2-8.4-.2-8.5-.1zm18.4 33.4c3 .7 6 1.8 6.8 2.4.8.6 1.7 1 2 1 2.7-.6 14.6 7.1 21.5 13.9 26.3 25.8 26.6 62.8.6 88.7-16.9 16.9-36.8 22.8-59.5 17.6-8.6-1.9-26-11.5-25.3-13.8.3-.7 7.4-6.1 15.9-12 8.5-6 16.4-11.6 17.6-12.6 1.2-.9 7.2-5.1 13.2-9.2 6.1-4.1 11-7.9 11.1-8.3 0-.9-9.6-15.2-11.6-17.4-.7-.7-2.2-2.8-3.4-4.8-1.2-1.9-2.4-3.5-2.7-3.5-.4 0-11.2 7.3-13.8 9.3-.5.4-4.1 3-8 5.7-3.8 2.7-7.9 5.6-9 6.4-9.5 6.9-27.7 19.6-27.9 19.6-.7 0-2.6-5.6-3.3-9.5-.4-2.2-.7-7.8-.7-12.5.1-16.1 6.7-30.5 19.8-43.5 10.1-10 21.7-16.2 34.1-18.2 1.7-.3 3.1-.6 3.2-.7.8-.7 14.8.3 19.4 1.4zM471.5 344.3c-46.1 7.6-82.8 49.7-82.6 94.7 0 5.8.2 11.6.5 13 .3 1.4.8 3.8 1.1 5.5 1.1 5.2 4.7 17 5.6 18 2.1 2.2.4 4.5-7.6 10.1-4.7 3.2-9.3 6.5-10.3 7.2-1.6 1.2-21.2 15.1-24.2 17.2-.8.6-8 5.6-16 11.3-8 5.6-15.5 10.9-16.6 11.7-17.5 12.2-22.6 16-21.8 16.1.5.1 12.7.2 27.2.3l26.4.2 21.1-15c11.7-8.2 23.2-16.3 25.7-18 2.5-1.7 4.7-3.4 4.8-3.9.2-.4.8-.7 1.3-.7.6 0 1.9-.8 3-1.8 1-1.1 3-2.5 4.4-3.2 2.3-1.2 2.8-1 7.2 2.9 8.3 7.3 15.8 12.1 25.1 16.1 13.7 5.8 25.6 8.3 39.2 8.2 9.5-.1 16.4-1.3 27-4.9 10.8-3.6 23.5-10.6 30.7-16.8 30.5-26.4 43.1-63 33.4-96.7-2.4-8.3-6.6-18-10.3-23.6-1.5-2.4-2.8-4.7-2.8-5.2 0-.4-.3-1-.7-1.2-.5-.2-2.6-2.6-4.8-5.3-15-18.9-37.5-32.3-60.5-36.1-6.4-1-19.6-1.1-25.5-.1zm23.5 32.1c3.7.7 5.2 1.2 8.3 2.4 1.6.7 3.3 1.2 3.8 1.2s2.7 1.1 4.9 2.5 4.4 2.5 5 2.5c.5 0 1 .4 1 .8s1.2 1.5 2.8 2.4c4.5 2.8 14.3 13.3 16.9 18.3.9 1.6 1.9 3.2 2.3 3.5.9.7 4.7 10.6 6.1 16 1.3 4.9 1.6 17.4.6 23.2-3.6 20.5-21.9 41.8-42.7 49.6-11.4 4.2-24.1 4.7-36.9 1.2-9.3-2.5-23.6-10.5-23.6-13.3 0-.9 4.7-4.4 26.5-19.7.8-.6 7.8-5.5 15.5-11.1 7.7-5.5 14.7-10.4 15.5-10.9 1-.7 1.2-1.2.4-1.7-.6-.5-4.8-6.1-9.3-12.6-4.5-6.4-8.5-11.7-8.7-11.7-.6 0-11.9 7.8-34.4 23.8-8 5.6-15.3 10.8-16.4 11.5-1 .6-2.4 1.7-3 2.3-.6.6-2.1 1.6-3.3 2.2-1.9 1.1-2.2.8-3.2-2.1-3.2-8.9-3.1-27.5 0-35.4 8.2-20.4 20.9-33.9 38.8-41.4 3.6-1.5 8.4-3 10.5-3.3 2.2-.4 4.1-.8 4.3-1 .5-.5 15.2.1 18.3.8z"/></svg>
